<svg class="main-svg" xmlns="http://www.w3.org/2000/svg" xmlns:xlink="http://www.w3.org/1999/xlink" width="3500" height="600" style="" viewBox="0 0 3500 600"><rect x="0" y="0" width="3500" height="600" style="fill: rgb(255, 255, 255); fill-opacity: 1;"/><defs id="defs-30baba"><g class="clips"><clipPath id="clip30babaxyplot" class="plotclip"><rect width="3444" height="213"/></clipPath><clipPath class="axesclip" id="clip30babax"><rect x="56" y="0" width="3444" height="600"/></clipPath><clipPath class="axesclip" id="clip30babay"><rect x="0" y="30" width="3500" height="213"/></clipPath><clipPath class="axesclip" id="clip30babaxy"><rect x="56" y="30" width="3444" height="213"/></clipPath></g><g class="gradients"/><g class="patterns"/></defs><g class="bglayer"><rect class="bg" x="56" y="30" width="3444" height="213" style="fill: rgb(229, 236, 246); fill-opacity: 1; stroke-width: 0;"/></g><g class="layer-below"><g class="imagelayer"/><g class="shapelayer"/></g><g class="cartesianlayer"><g class="subplot xy"><g class="layer-subplot"><g class="shapelayer"/><g class="imagelayer"/></g><g class="minor-gridlayer"><g class="x"/><g class="y"/></g><g class="gridlayer"><g class="x"/><g class="y"><path class="ygrid crisp" transform="translate(0,199.03)" d="M56,0h3444" style="stroke: rgb(255, 255, 255); stroke-opacity: 1; stroke-width: 1px;"/><path class="ygrid crisp" transform="translate(0,159.44)" d="M56,0h3444" style="stroke: rgb(255, 255, 255); stroke-opacity: 1; stroke-width: 1px;"/><path class="ygrid crisp" transform="translate(0,119.84)" d="M56,0h3444" style="stroke: rgb(255, 255, 255); stroke-opacity: 1; stroke-width: 1px;"/><path class="ygrid crisp" transform="translate(0,80.25)" d="M56,0h3444" style="stroke: rgb(255, 255, 255); stroke-opacity: 1; stroke-width: 1px;"/><path class="ygrid crisp" transform="translate(0,40.65)" d="M56,0h3444" style="stroke: rgb(255, 255, 255); stroke-opacity: 1; stroke-width: 1px;"/></g></g><g class="zerolinelayer"><path class="yzl zl crisp" transform="translate(0,238.63)" d="M56,0h3444" style="stroke: rgb(255, 255, 255); stroke-opacity: 1; stroke-width: 2px;"/></g><g class="layer-between"><g class="shapelayer"/><g class="imagelayer"/></g><path class="xlines-below"/><path class="ylines-below"/><g class="overlines-below"/><g class="xaxislayer-below"/><g class="yaxislayer-below"/><g class="overaxes-below"/><g class="overplot"><g class="xy" transform="translate(56,30)" clip-path="url(#clip30babaxyplot)"><g class="boxlayer mlayer"><g class="trace boxes" style="opacity: 1;"><path class="box" d="M58.55,162.58H171.05M58.55,162.58H171.05V162.58H58.55ZM114.8,162.58V197.92M114.8,162.58V22.53M86.67,197.92H142.93M86.67,22.53H142.93" style="vector-effect: none; stroke-width: 2px; stroke: rgb(99, 110, 250); stroke-opacity: 1; fill: rgb(99, 110, 250); fill-opacity: 0.5;"/><path class="box" d="M288.15,162.58H400.65M288.15,162.58H400.65V161.93H288.15ZM344.4,162.58V196.28M344.4,161.93V92.14M316.27,196.28H372.53M316.27,92.14H372.53" style="vector-effect: none; stroke-width: 2px; stroke: rgb(99, 110, 250); stroke-opacity: 1; fill: rgb(99, 110, 250); fill-opacity: 0.5;"/><path class="box" d="M517.75,162.58H630.25M517.75,162.58H630.25V162.58H517.75ZM574,162.58V202.35M574,162.58V61.13M545.87,202.35H602.13M545.87,61.13H602.13" style="vector-effect: none; stroke-width: 2px; stroke: rgb(99, 110, 250); stroke-opacity: 1; fill: rgb(99, 110, 250); fill-opacity: 0.5;"/><path class="box" d="M747.35,162.58H859.85M747.35,162.58H859.85V162.58H747.35ZM803.6,162.58V194.63M803.6,162.58V90.99M775.47,194.63H831.73M775.47,90.99H831.73" style="vector-effect: none; stroke-width: 2px; stroke: rgb(99, 110, 250); stroke-opacity: 1; fill: rgb(99, 110, 250); fill-opacity: 0.5;"/><path class="box" d="M976.95,161.58H1089.45M976.95,162.58H1089.45V148.8H976.95ZM1033.2,162.58V192.98M1033.2,148.8V85.09M1005.07,192.98H1061.33M1005.07,85.09H1061.33" style="vector-effect: none; stroke-width: 2px; stroke: rgb(99, 110, 250); stroke-opacity: 1; fill: rgb(99, 110, 250); fill-opacity: 0.5;"/><path class="box" d="M1206.55,163.58H1319.05M1206.55,178.58H1319.05V162.58H1206.55ZM1262.8,178.58V197.27M1262.8,162.58V104.79M1234.67,197.27H1290.93M1234.67,104.79H1290.93" style="vector-effect: none; stroke-width: 2px; stroke: rgb(99, 110, 250); stroke-opacity: 1; fill: rgb(99, 110, 250); fill-opacity: 0.5;"/><path class="box" d="M1436.15,161.58H1548.65M1436.15,162.58H1548.65V158.78H1436.15ZM1492.4,162.58V195.04M1492.4,158.78V97.62M1464.27,195.04H1520.53M1464.27,97.62H1520.53" style="vector-effect: none; stroke-width: 2px; stroke: rgb(99, 110, 250); stroke-opacity: 1; fill: rgb(99, 110, 250); fill-opacity: 0.5;"/><path class="box" d="M1665.75,162.58H1778.25M1665.75,168.92H1778.25V158.13H1665.75ZM1722,168.92V194.22M1722,158.13V126.14M1693.87,194.22H1750.13M1693.87,126.14H1750.13" style="vector-effect: none; stroke-width: 2px; stroke: rgb(99, 110, 250); stroke-opacity: 1; fill: rgb(99, 110, 250); fill-opacity: 0.5;"/><path class="box" d="M1895.35,162.58H2007.85M1895.35,162.58H2007.85V162.58H1895.35ZM1951.6,162.58V191.33M1951.6,162.58V113.6M1923.47,191.33H1979.73M1923.47,113.6H1979.73" style="vector-effect: none; stroke-width: 2px; stroke: rgb(99, 110, 250); stroke-opacity: 1; fill: rgb(99, 110, 250); fill-opacity: 0.5;"/><path class="box" d="M2124.95,162.58H2237.45M2124.95,162.58H2237.45V162.58H2124.95ZM2181.2,162.58V194.22M2181.2,162.58V126.27M2153.07,194.22H2209.33M2153.07,126.27H2209.33" style="vector-effect: none; stroke-width: 2px; stroke: rgb(99, 110, 250); stroke-opacity: 1; fill: rgb(99, 110, 250); fill-opacity: 0.5;"/><path class="box" d="M2354.55,162.58H2467.05M2354.55,162.58H2467.05V162.58H2354.55ZM2410.8,162.58V196.28M2410.8,162.58V10.65M2382.67,196.28H2438.93M2382.67,10.65H2438.93" style="vector-effect: none; stroke-width: 2px; stroke: rgb(99, 110, 250); stroke-opacity: 1; fill: rgb(99, 110, 250); fill-opacity: 0.5;"/><path class="box" d="M2584.15,162.58H2696.65M2584.15,162.58H2696.65V162.58H2584.15ZM2640.4,162.58V199.29M2640.4,162.58V92.61M2612.27,199.29H2668.53M2612.27,92.61H2668.53" style="vector-effect: none; stroke-width: 2px; stroke: rgb(99, 110, 250); stroke-opacity: 1; fill: rgb(99, 110, 250); fill-opacity: 0.5;"/><path class="box" d="M2813.75,162.58H2926.25M2813.75,162.58H2926.25V162.58H2813.75ZM2870,162.58V195.66M2870,162.58V102.51M2841.87,195.66H2898.13M2841.87,102.51H2898.13" style="vector-effect: none; stroke-width: 2px; stroke: rgb(99, 110, 250); stroke-opacity: 1; fill: rgb(99, 110, 250); fill-opacity: 0.5;"/><path class="box" d="M3043.35,161.58H3155.85M3043.35,162.58H3155.85V152.01H3043.35ZM3099.6,162.58V188.86M3099.6,152.01V98.14M3071.47,188.86H3127.73M3071.47,98.14H3127.73" style="vector-effect: none; stroke-width: 2px; stroke: rgb(99, 110, 250); stroke-opacity: 1; fill: rgb(99, 110, 250); fill-opacity: 0.5;"/><path class="box" d="M3272.95,163.58H3385.45M3272.95,167.06H3385.45V162.58H3272.95ZM3329.2,167.06V197.29M3329.2,162.58V104.59M3301.07,197.29H3357.33M3301.07,104.59H3357.33" style="vector-effect: none; stroke-width: 2px; stroke: rgb(99, 110, 250); stroke-opacity: 1; fill: rgb(99, 110, 250); fill-opacity: 0.5;"/></g></g></g></g><g class="zerolinelayer-above"/><path class="xlines-above crisp" d="M0,0" style="fill: none;"/><path class="ylines-above crisp" d="M0,0" style="fill: none;"/><g class="overlines-above"/><g class="xaxislayer-above"><g class="xtick"><text text-anchor="end" x="0" y="256" transform="translate(170.8,0) rotate(-45,0,250)" style="font-family: 'Open Sans', verdana, arial, sans-serif; font-size: 12px; fill: rgb(42, 63, 95); fill-opacity: 1; white-space: pre;">Temporary Help Services</text></g><g class="xtick"><text text-anchor="end" x="0" y="256" transform="translate(400.4,0) rotate(-45,0,250)" style="font-family: 'Open Sans', verdana, arial, sans-serif; font-size: 12px; fill: rgb(42, 63, 95); fill-opacity: 1; white-space: pre;">Commercial Banking</text></g><g class="xtick"><text text-anchor="end" x="0" y="256" transform="translate(630,0) rotate(-45,0,250)" style="font-family: 'Open Sans', verdana, arial, sans-serif; font-size: 12px; fill: rgb(42, 63, 95); fill-opacity: 1; white-space: pre;">Unclassified Industry</text></g><g class="xtick"><text text-anchor="end" x="0" y="256" transform="translate(859.6,0) rotate(-45,0,250)" style="font-family: 'Open Sans', verdana, arial, sans-serif; font-size: 12px; fill: rgb(42, 63, 95); fill-opacity: 1; white-space: pre;">Custom Computer Programming Services</text></g><g class="xtick"><text text-anchor="end" x="0" y="256" transform="translate(1089.2,0) rotate(-45,0,250)" style="font-family: 'Open Sans', verdana, arial, sans-serif; font-size: 12px; fill: rgb(42, 63, 95); fill-opacity: 1; white-space: pre;">Administrative Management and General Management Consulting Services</text></g><g class="xtick"><text text-anchor="end" x="0" y="256" transform="translate(1318.8,0) rotate(-45,0,250)" style="font-family: 'Open Sans', verdana, arial, sans-serif; font-size: 12px; fill: rgb(42, 63, 95); fill-opacity: 1; white-space: pre;">Colleges, Universities, and Professional Schools</text></g><g class="xtick"><text text-anchor="end" x="0" y="256" transform="translate(1548.4,0) rotate(-45,0,250)" style="font-family: 'Open Sans', verdana, arial, sans-serif; font-size: 12px; fill: rgb(42, 63, 95); fill-opacity: 1; white-space: pre;">Computer Systems Design Services</text></g><g class="xtick"><text text-anchor="end" x="0" y="256" transform="translate(1778,0) rotate(-45,0,250)" style="font-family: 'Open Sans', verdana, arial, sans-serif; font-size: 12px; fill: rgb(42, 63, 95); fill-opacity: 1; white-space: pre;">Direct Health and Medical Insurance Carriers</text></g><g class="xtick"><text text-anchor="end" x="0" y="256" transform="translate(2007.6,0) rotate(-45,0,250)" style="font-family: 'Open Sans', verdana, arial, sans-serif; font-size: 12px; fill: rgb(42, 63, 95); fill-opacity: 1; white-space: pre;">Other Management Consulting Services</text></g><g class="xtick"><text text-anchor="end" x="0" y="256" transform="translate(2237.2,0) rotate(-45,0,250)" style="font-family: 'Open Sans', verdana, arial, sans-serif; font-size: 12px; fill: rgb(42, 63, 95); fill-opacity: 1; white-space: pre;">Other Scientific and Technical Consulting Services</text></g><g class="xtick"><text text-anchor="end" x="0" y="256" transform="translate(2466.8,0) rotate(-45,0,250)" style="font-family: 'Open Sans', verdana, arial, sans-serif; font-size: 12px; fill: rgb(42, 63, 95); fill-opacity: 1; white-space: pre;">Employment Placement Agencies</text></g><g class="xtick"><text text-anchor="end" x="0" y="256" transform="translate(2696.4,0) rotate(-45,0,250)" style="font-family: 'Open Sans', verdana, arial, sans-serif; font-size: 12px; fill: rgb(42, 63, 95); fill-opacity: 1; white-space: pre;">Other Computer Related Services</text></g><g class="xtick"><text text-anchor="end" x="0" y="256" transform="translate(2926,0) rotate(-45,0,250)" style="font-family: 'Open Sans', verdana, arial, sans-serif; font-size: 12px; fill: rgb(42, 63, 95); fill-opacity: 1; white-space: pre;">All Other Professional, Scientific, and Technical Services</text></g><g class="xtick"><text text-anchor="end" x="0" y="256" transform="translate(3155.6,0) rotate(-45,0,250)" style="font-family: 'Open Sans', verdana, arial, sans-serif; font-size: 12px; fill: rgb(42, 63, 95); fill-opacity: 1; white-space: pre;">Offices of Certified Public Accountants</text></g><g class="xtick"><text text-anchor="end" x="0" y="256" transform="translate(3385.2,0) rotate(-45,0,250)" style="font-family: 'Open Sans', verdana, arial, sans-serif; font-size: 12px; fill: rgb(42, 63, 95); fill-opacity: 1; white-space: pre;">General Medical and Surgical Hospitals</text></g></g><g class="yaxislayer-above"><g class="ytick"><text text-anchor="end" x="55" y="4.199999999999999" transform="translate(0,238.63)" style="font-family: 'Open Sans', verdana, arial, sans-serif; font-size: 12px; fill: rgb(42, 63, 95); fill-opacity: 1; white-space: pre;">0</text></g><g class="ytick"><text text-anchor="end" x="55" y="4.199999999999999" style="font-family: 'Open Sans', verdana, arial, sans-serif; font-size: 12px; fill: rgb(42, 63, 95); fill-opacity: 1; white-space: pre;" transform="translate(0,199.03)">100k</text></g><g class="ytick"><text text-anchor="end" x="55" y="4.199999999999999" style="font-family: 'Open Sans', verdana, arial, sans-serif; font-size: 12px; fill: rgb(42, 63, 95); fill-opacity: 1; white-space: pre;" transform="translate(0,159.44)">200k</text></g><g class="ytick"><text text-anchor="end" x="55" y="4.199999999999999" style="font-family: 'Open Sans', verdana, arial, sans-serif; font-size: 12px; fill: rgb(42, 63, 95); fill-opacity: 1; white-space: pre;" transform="translate(0,119.84)">300k</text></g><g class="ytick"><text text-anchor="end" x="55" y="4.199999999999999" style="font-family: 'Open Sans', verdana, arial, sans-serif; font-size: 12px; fill: rgb(42, 63, 95); fill-opacity: 1; white-space: pre;" transform="translate(0,80.25)">400k</text></g><g class="ytick"><text text-anchor="end" x="55" y="4.199999999999999" style="font-family: 'Open Sans', verdana, arial, sans-serif; font-size: 12px; fill: rgb(42, 63, 95); fill-opacity: 1; white-space: pre;" transform="translate(0,40.65)">500k</text></g></g><g class="overaxes-above"/></g></g><g class="polarlayer"/><g class="smithlayer"/><g class="ternarylayer"/><g class="geolayer"/><g class="funnelarealayer"/><g class="pielayer"/><g class="iciclelayer"/><g class="treemaplayer"/><g class="sunburstlayer"/><g class="glimages"/><defs id="topdefs-30baba"><g class="clips"/></defs><g class="layer-above"><g class="imagelayer"/><g class="shapelayer"/></g><g class="infolayer"><g class="g-gtitle"><text class="gtitle" x="175" y="15" text-anchor="start" dy="0em" style="opacity: 1; font-family: 'Open Sans', verdana, arial, sans-serif; font-size: 17px; fill: rgb(42, 63, 95); fill-opacity: 1; white-space: pre;">Salary Distribution by Industry (Top 15)</text></g><g class="g-xtitle" transform="translate(0,-2.4142578124999545)"><text class="xtitle" x="1778" y="599.4142578125" text-anchor="middle" style="opacity: 1; font-family: 'Open Sans', verdana, arial, sans-serif; font-size: 14px; fill: rgb(42, 63, 95); fill-opacity: 1; white-space: pre;">Industry</text></g><g class="g-ytitle" transform="translate(8.400390625,0)"><text class="ytitle" transform="rotate(-90,5.600000000000001,136.5)" x="5.600000000000001" y="136.5" text-anchor="middle" style="opacity: 1; font-family: 'Open Sans', verdana, arial, sans-serif; font-size: 14px; fill: rgb(42, 63, 95); fill-opacity: 1; white-space: pre;">Salary</text></g></g></svg>