<svg class="main-svg" xmlns="http://www.w3.org/2000/svg" xmlns:xlink="http://www.w3.org/1999/xlink" width="3500" height="600" style="" viewBox="0 0 3500 600"><rect x="0" y="0" width="3500" height="600" style="fill: rgb(255, 255, 255); fill-opacity: 1;"/><defs id="defs-a37b7a"><g class="clips"><clipPath id="clipa37b7axyplot" class="plotclip"><rect width="3340" height="130"/></clipPath><clipPath class="axesclip" id="clipa37b7ax"><rect x="80" y="0" width="3340" height="600"/></clipPath><clipPath class="axesclip" id="clipa37b7ay"><rect x="0" y="100" width="3500" height="130"/></clipPath><clipPath class="axesclip" id="clipa37b7axy"><rect x="80" y="100" width="3340" height="130"/></clipPath></g><g class="gradients"/><g class="patterns"/></defs><g class="bglayer"><rect class="bg" x="80" y="100" width="3340" height="130" style="fill: rgb(229, 236, 246); fill-opacity: 1; stroke-width: 0;"/></g><g class="layer-below"><g class="imagelayer"/><g class="shapelayer"/></g><g class="cartesianlayer"><g class="subplot xy"><g class="layer-subplot"><g class="shapelayer"/><g class="imagelayer"/></g><g class="minor-gridlayer"><g class="x"/><g class="y"/></g><g class="gridlayer"><g class="x"/><g class="y"><path class="ygrid crisp" transform="translate(0,179)" d="M80,0h3340" style="stroke: rgb(255, 255, 255); stroke-opacity: 1; stroke-width: 1px;"/><path class="ygrid crisp" transform="translate(0,130.67000000000002)" d="M80,0h3340" style="stroke: rgb(255, 255, 255); stroke-opacity: 1; stroke-width: 1px;"/></g></g><g class="zerolinelayer"><path class="yzl zl crisp" transform="translate(0,227.32999999999998)" d="M80,0h3340" style="stroke: rgb(255, 255, 255); stroke-opacity: 1; stroke-width: 2px;"/></g><g class="layer-between"><g class="shapelayer"/><g class="imagelayer"/></g><path class="xlines-below"/><path class="ylines-below"/><g class="overlines-below"/><g class="xaxislayer-below"/><g class="yaxislayer-below"/><g class="overaxes-below"/><g class="overplot"><g class="xy" transform="translate(80,100)" clip-path="url(#clipa37b7axyplot)"><g class="boxlayer mlayer"><g class="trace boxes" style="opacity: 1;"><path class="box" d="M56.78,99.23H165.89M56.78,99.23H165.89V99.23H56.78ZM111.33,99.23V120.8M111.33,99.23V13.75M84.06,120.8H138.61M84.06,13.75H138.61" style="vector-effect: none; stroke-width: 2px; stroke: rgb(99, 110, 250); stroke-opacity: 1; fill: rgb(99, 110, 250); fill-opacity: 0.5;"/><path class="box" d="M279.45,99.23H388.55M279.45,99.23H388.55V98.83H279.45ZM334,99.23V119.79M334,98.83V56.23M306.72,119.79H361.28M306.72,56.23H361.28" style="vector-effect: none; stroke-width: 2px; stroke: rgb(99, 110, 250); stroke-opacity: 1; fill: rgb(99, 110, 250); fill-opacity: 0.5;"/><path class="box" d="M502.11,99.23H611.22M502.11,99.23H611.22V99.23H502.11ZM556.67,99.23V123.5M556.67,99.23V37.31M529.39,123.5H583.94M529.39,37.31H583.94" style="vector-effect: none; stroke-width: 2px; stroke: rgb(99, 110, 250); stroke-opacity: 1; fill: rgb(99, 110, 250); fill-opacity: 0.5;"/><path class="box" d="M724.78,99.23H833.89M724.78,99.23H833.89V99.23H724.78ZM779.33,99.23V118.79M779.33,99.23V55.53M752.06,118.79H806.61M752.06,55.53H806.61" style="vector-effect: none; stroke-width: 2px; stroke: rgb(99, 110, 250); stroke-opacity: 1; fill: rgb(99, 110, 250); fill-opacity: 0.5;"/><path class="box" d="M947.45,98.23H1056.55M947.45,99.23H1056.55V90.82H947.45ZM1002,99.23V117.78M1002,90.82V51.93M974.72,117.78H1029.28M974.72,51.93H1029.28" style="vector-effect: none; stroke-width: 2px; stroke: rgb(99, 110, 250); stroke-opacity: 1; fill: rgb(99, 110, 250); fill-opacity: 0.5;"/><path class="box" d="M1170.11,100.23H1279.22M1170.11,108.99H1279.22V99.23H1170.11ZM1224.67,108.99V120.4M1224.67,99.23V63.96M1197.39,120.4H1251.94M1197.39,63.96H1251.94" style="vector-effect: none; stroke-width: 2px; stroke: rgb(99, 110, 250); stroke-opacity: 1; fill: rgb(99, 110, 250); fill-opacity: 0.5;"/><path class="box" d="M1392.78,98.23H1501.89M1392.78,99.23H1501.89V96.91H1392.78ZM1447.33,99.23V119.04M1447.33,96.91V59.58M1420.06,119.04H1474.61M1420.06,59.58H1474.61" style="vector-effect: none; stroke-width: 2px; stroke: rgb(99, 110, 250); stroke-opacity: 1; fill: rgb(99, 110, 250); fill-opacity: 0.5;"/><path class="box" d="M1615.45,99.23H1724.55M1615.45,103.09H1724.55V96.51H1615.45ZM1670,103.09V118.54M1670,96.51V76.99M1642.72,118.54H1697.28M1642.72,76.99H1697.28" style="vector-effect: none; stroke-width: 2px; stroke: rgb(99, 110, 250); stroke-opacity: 1; fill: rgb(99, 110, 250); fill-opacity: 0.5;"/><path class="box" d="M1838.11,99.23H1947.22M1838.11,99.23H1947.22V99.23H1838.11ZM1892.67,99.23V116.78M1892.67,99.23V69.33M1865.39,116.78H1919.94M1865.39,69.33H1919.94" style="vector-effect: none; stroke-width: 2px; stroke: rgb(99, 110, 250); stroke-opacity: 1; fill: rgb(99, 110, 250); fill-opacity: 0.5;"/><path class="box" d="M2060.78,99.23H2169.89M2060.78,99.23H2169.89V99.23H2060.78ZM2115.33,99.23V118.54M2115.33,99.23V77.07M2088.06,118.54H2142.61M2088.06,77.07H2142.61" style="vector-effect: none; stroke-width: 2px; stroke: rgb(99, 110, 250); stroke-opacity: 1; fill: rgb(99, 110, 250); fill-opacity: 0.5;"/><path class="box" d="M2283.45,99.23H2392.55M2283.45,99.23H2392.55V99.23H2283.45ZM2338,99.23V119.79M2338,99.23V6.5M2310.72,119.79H2365.28M2310.72,6.5H2365.28" style="vector-effect: none; stroke-width: 2px; stroke: rgb(99, 110, 250); stroke-opacity: 1; fill: rgb(99, 110, 250); fill-opacity: 0.5;"/><path class="box" d="M2506.11,99.23H2615.22M2506.11,99.23H2615.22V99.23H2506.11ZM2560.67,99.23V121.63M2560.67,99.23V56.52M2533.39,121.63H2587.94M2533.39,56.52H2587.94" style="vector-effect: none; stroke-width: 2px; stroke: rgb(99, 110, 250); stroke-opacity: 1; fill: rgb(99, 110, 250); fill-opacity: 0.5;"/><path class="box" d="M2728.78,99.23H2837.89M2728.78,99.23H2837.89V99.23H2728.78ZM2783.33,99.23V119.42M2783.33,99.23V62.57M2756.06,119.42H2810.61M2756.06,62.57H2810.61" style="vector-effect: none; stroke-width: 2px; stroke: rgb(99, 110, 250); stroke-opacity: 1; fill: rgb(99, 110, 250); fill-opacity: 0.5;"/><path class="box" d="M2951.45,98.23H3060.55M2951.45,99.23H3060.55V92.77H2951.45ZM3006,99.23V115.27M3006,92.77V59.9M2978.72,115.27H3033.28M2978.72,59.9H3033.28" style="vector-effect: none; stroke-width: 2px; stroke: rgb(99, 110, 250); stroke-opacity: 1; fill: rgb(99, 110, 250); fill-opacity: 0.5;"/><path class="box" d="M3174.11,100.23H3283.22M3174.11,101.96H3283.22V99.23H3174.11ZM3228.67,101.96V120.41M3228.67,99.23V63.84M3201.39,120.41H3255.94M3201.39,63.84H3255.94" style="vector-effect: none; stroke-width: 2px; stroke: rgb(99, 110, 250); stroke-opacity: 1; fill: rgb(99, 110, 250); fill-opacity: 0.5;"/></g></g></g></g><g class="zerolinelayer-above"/><path class="xlines-above crisp" d="M0,0" style="fill: none;"/><path class="ylines-above crisp" d="M0,0" style="fill: none;"/><g class="overlines-above"/><g class="xaxislayer-above"><g class="xtick"><text text-anchor="end" x="0" y="243" transform="translate(191.32999999999998,0) rotate(-45,0,237)" style="font-family: 'Open Sans', verdana, arial, sans-serif; font-size: 12px; fill: rgb(42, 63, 95); fill-opacity: 1; white-space: pre;">Temporary Help Services</text></g><g class="xtick"><text text-anchor="end" x="0" y="243" transform="translate(414,0) rotate(-45,0,237)" style="font-family: 'Open Sans', verdana, arial, sans-serif; font-size: 12px; fill: rgb(42, 63, 95); fill-opacity: 1; white-space: pre;">Commercial Banking</text></g><g class="xtick"><text text-anchor="end" x="0" y="243" transform="translate(636.67,0) rotate(-45,0,237)" style="font-family: 'Open Sans', verdana, arial, sans-serif; font-size: 12px; fill: rgb(42, 63, 95); fill-opacity: 1; white-space: pre;">Unclassified Industry</text></g><g class="xtick"><text text-anchor="end" x="0" y="243" transform="translate(859.33,0) rotate(-45,0,237)" style="font-family: 'Open Sans', verdana, arial, sans-serif; font-size: 12px; fill: rgb(42, 63, 95); fill-opacity: 1; white-space: pre;">Custom Computer Programming Services</text></g><g class="xtick"><text text-anchor="end" x="0" y="243" transform="translate(1082,0) rotate(-45,0,237)" style="font-family: 'Open Sans', verdana, arial, sans-serif; font-size: 12px; fill: rgb(42, 63, 95); fill-opacity: 1; white-space: pre;">Administrative Management and General Management Consulting Services</text></g><g class="xtick"><text text-anchor="end" x="0" y="243" transform="translate(1304.67,0) rotate(-45,0,237)" style="font-family: 'Open Sans', verdana, arial, sans-serif; font-size: 12px; fill: rgb(42, 63, 95); fill-opacity: 1; white-space: pre;">Colleges, Universities, and Professional Schools</text></g><g class="xtick"><text text-anchor="end" x="0" y="243" transform="translate(1527.33,0) rotate(-45,0,237)" style="font-family: 'Open Sans', verdana, arial, sans-serif; font-size: 12px; fill: rgb(42, 63, 95); fill-opacity: 1; white-space: pre;">Computer Systems Design Services</text></g><g class="xtick"><text text-anchor="end" x="0" y="243" transform="translate(1750,0) rotate(-45,0,237)" style="font-family: 'Open Sans', verdana, arial, sans-serif; font-size: 12px; fill: rgb(42, 63, 95); fill-opacity: 1; white-space: pre;">Direct Health and Medical Insurance Carriers</text></g><g class="xtick"><text text-anchor="end" x="0" y="243" transform="translate(1972.67,0) rotate(-45,0,237)" style="font-family: 'Open Sans', verdana, arial, sans-serif; font-size: 12px; fill: rgb(42, 63, 95); fill-opacity: 1; white-space: pre;">Other Management Consulting Services</text></g><g class="xtick"><text text-anchor="end" x="0" y="243" transform="translate(2195.33,0) rotate(-45,0,237)" style="font-family: 'Open Sans', verdana, arial, sans-serif; font-size: 12px; fill: rgb(42, 63, 95); fill-opacity: 1; white-space: pre;">Other Scientific and Technical Consulting Services</text></g><g class="xtick"><text text-anchor="end" x="0" y="243" transform="translate(2418,0) rotate(-45,0,237)" style="font-family: 'Open Sans', verdana, arial, sans-serif; font-size: 12px; fill: rgb(42, 63, 95); fill-opacity: 1; white-space: pre;">Employment Placement Agencies</text></g><g class="xtick"><text text-anchor="end" x="0" y="243" transform="translate(2640.67,0) rotate(-45,0,237)" style="font-family: 'Open Sans', verdana, arial, sans-serif; font-size: 12px; fill: rgb(42, 63, 95); fill-opacity: 1; white-space: pre;">Other Computer Related Services</text></g><g class="xtick"><text text-anchor="end" x="0" y="243" transform="translate(2863.33,0) rotate(-45,0,237)" style="font-family: 'Open Sans', verdana, arial, sans-serif; font-size: 12px; fill: rgb(42, 63, 95); fill-opacity: 1; white-space: pre;">All Other Professional, Scientific, and Technical Services</text></g><g class="xtick"><text text-anchor="end" x="0" y="243" transform="translate(3086,0) rotate(-45,0,237)" style="font-family: 'Open Sans', verdana, arial, sans-serif; font-size: 12px; fill: rgb(42, 63, 95); fill-opacity: 1; white-space: pre;">Offices of Certified Public Accountants</text></g><g class="xtick"><text text-anchor="end" x="0" y="243" transform="translate(3308.67,0) rotate(-45,0,237)" style="font-family: 'Open Sans', verdana, arial, sans-serif; font-size: 12px; fill: rgb(42, 63, 95); fill-opacity: 1; white-space: pre;">General Medical and Surgical Hospitals</text></g></g><g class="yaxislayer-above"><g class="ytick"><text text-anchor="end" x="79" y="4.199999999999999" transform="translate(0,227.32999999999998)" style="font-family: 'Open Sans', verdana, arial, sans-serif; font-size: 12px; fill: rgb(42, 63, 95); fill-opacity: 1; white-space: pre;">0</text></g><g class="ytick"><text text-anchor="end" x="79" y="4.199999999999999" style="font-family: 'Open Sans', verdana, arial, sans-serif; font-size: 12px; fill: rgb(42, 63, 95); fill-opacity: 1; white-space: pre;" transform="translate(0,179)">200k</text></g><g class="ytick"><text text-anchor="end" x="79" y="4.199999999999999" style="font-family: 'Open Sans', verdana, arial, sans-serif; font-size: 12px; fill: rgb(42, 63, 95); fill-opacity: 1; white-space: pre;" transform="translate(0,130.67000000000002)">400k</text></g></g><g class="overaxes-above"/></g></g><g class="polarlayer"/><g class="smithlayer"/><g class="ternarylayer"/><g class="geolayer"/><g class="funnelarealayer"/><g class="pielayer"/><g class="iciclelayer"/><g class="treemaplayer"/><g class="sunburstlayer"/><g class="glimages"/><defs id="topdefs-a37b7a"><g class="clips"/></defs><g class="layer-above"><g class="imagelayer"/><g class="shapelayer"/></g><g class="infolayer"><g class="g-gtitle"><text class="gtitle" x="175" y="50" text-anchor="start" dy="0em" style="opacity: 1; font-family: 'Open Sans', verdana, arial, sans-serif; font-size: 17px; fill: rgb(42, 63, 95); fill-opacity: 1; white-space: pre;">Salary Distribution by Industry (Top 15)</text></g><g class="g-xtitle"><text class="xtitle" x="1750" y="587.684765625" text-anchor="middle" style="opacity: 1; font-family: 'Open Sans', verdana, arial, sans-serif; font-size: 14px; fill: rgb(42, 63, 95); fill-opacity: 1; white-space: pre;">Industry</text></g><g class="g-ytitle"><text class="ytitle" transform="rotate(-90,29.740625,165)" x="29.740625" y="165" text-anchor="middle" style="opacity: 1; font-family: 'Open Sans', verdana, arial, sans-serif; font-size: 14px; fill: rgb(42, 63, 95); fill-opacity: 1; white-space: pre;">Salary</text></g></g></svg>