<svg class="main-svg" xmlns="http://www.w3.org/2000/svg" xmlns:xlink="http://www.w3.org/1999/xlink" width="3500" height="600" style="" viewBox="0 0 3500 600"><rect x="0" y="0" width="3500" height="600" style="fill: rgb(255, 255, 255); fill-opacity: 1;"/><defs id="defs-9aae83"><g class="clips"><clipPath id="clip9aae83xyplot" class="plotclip"><rect width="3448" height="248"/></clipPath><clipPath class="axesclip" id="clip9aae83x"><rect x="52" y="0" width="3448" height="600"/></clipPath><clipPath class="axesclip" id="clip9aae83y"><rect x="0" y="30" width="3500" height="248"/></clipPath><clipPath class="axesclip" id="clip9aae83xy"><rect x="52" y="30" width="3448" height="248"/></clipPath></g><g class="gradients"/><g class="patterns"/></defs><g class="bglayer"><rect class="bg" x="52" y="30" width="3448" height="248" style="fill: rgb(229, 236, 246); fill-opacity: 1; stroke-width: 0;"/></g><g class="layer-below"><g class="imagelayer"/><g class="shapelayer"/></g><g class="cartesianlayer"><g class="subplot xy"><g class="layer-subplot"><g class="shapelayer"/><g class="imagelayer"/></g><g class="minor-gridlayer"><g class="x"/><g class="y"/></g><g class="gridlayer"><g class="x"/><g class="y"><path class="ygrid crisp" transform="translate(0,226.81)" d="M52,0h3448" style="stroke: rgb(255, 255, 255); stroke-opacity: 1; stroke-width: 1px;"/><path class="ygrid crisp" transform="translate(0,180.71)" d="M52,0h3448" style="stroke: rgb(255, 255, 255); stroke-opacity: 1; stroke-width: 1px;"/><path class="ygrid crisp" transform="translate(0,134.6)" d="M52,0h3448" style="stroke: rgb(255, 255, 255); stroke-opacity: 1; stroke-width: 1px;"/><path class="ygrid crisp" transform="translate(0,88.5)" d="M52,0h3448" style="stroke: rgb(255, 255, 255); stroke-opacity: 1; stroke-width: 1px;"/><path class="ygrid crisp" transform="translate(0,42.4)" d="M52,0h3448" style="stroke: rgb(255, 255, 255); stroke-opacity: 1; stroke-width: 1px;"/></g></g><g class="zerolinelayer"><path class="yzl zl crisp" transform="translate(0,272.90999999999997)" d="M52,0h3448" style="stroke: rgb(255, 255, 255); stroke-opacity: 1; stroke-width: 2px;"/></g><g class="layer-between"><g class="shapelayer"/><g class="imagelayer"/></g><path class="xlines-below"/><path class="ylines-below"/><g class="overlines-below"/><g class="xaxislayer-below"/><g class="yaxislayer-below"/><g class="overaxes-below"/><g class="overplot"><g class="xy" transform="translate(52,30)" clip-path="url(#clip9aae83xyplot)"><g class="boxlayer mlayer"><g class="trace boxes" style="opacity: 1;"><path class="box" d="M58.62,189.29H171.25M58.62,189.29H171.25V189.29H58.62ZM114.93,189.29V230.45M114.93,189.29V26.23M86.77,230.45H143.09M86.77,26.23H143.09" style="vector-effect: none; stroke-width: 2px; stroke: rgb(99, 110, 250); stroke-opacity: 1; fill: rgb(99, 110, 250); fill-opacity: 0.5;"/><path class="box" d="M288.48,189.29H401.12M288.48,189.29H401.12V188.54H288.48ZM344.8,189.29V228.53M344.8,188.54V107.28M316.64,228.53H372.96M316.64,107.28H372.96" style="vector-effect: none; stroke-width: 2px; stroke: rgb(99, 110, 250); stroke-opacity: 1; fill: rgb(99, 110, 250); fill-opacity: 0.5;"/><path class="box" d="M518.35,189.29H630.98M518.35,189.29H630.98V189.29H518.35ZM574.67,189.29V235.6M574.67,189.29V71.18M546.51,235.6H602.83M546.51,71.18H602.83" style="vector-effect: none; stroke-width: 2px; stroke: rgb(99, 110, 250); stroke-opacity: 1; fill: rgb(99, 110, 250); fill-opacity: 0.5;"/><path class="box" d="M748.22,189.29H860.85M748.22,189.29H860.85V189.29H748.22ZM804.53,189.29V226.61M804.53,189.29V105.94M776.37,226.61H832.69M776.37,105.94H832.69" style="vector-effect: none; stroke-width: 2px; stroke: rgb(99, 110, 250); stroke-opacity: 1; fill: rgb(99, 110, 250); fill-opacity: 0.5;"/><path class="box" d="M978.08,188.29H1090.72M978.08,189.29H1090.72V173.25H978.08ZM1034.4,189.29V224.69M1034.4,173.25V99.07M1006.24,224.69H1062.56M1006.24,99.07H1062.56" style="vector-effect: none; stroke-width: 2px; stroke: rgb(99, 110, 250); stroke-opacity: 1; fill: rgb(99, 110, 250); fill-opacity: 0.5;"/><path class="box" d="M1207.95,190.29H1320.58M1207.95,207.92H1320.58V189.29H1207.95ZM1264.27,207.92V229.68M1264.27,189.29V122.01M1236.11,229.68H1292.43M1236.11,122.01H1292.43" style="vector-effect: none; stroke-width: 2px; stroke: rgb(99, 110, 250); stroke-opacity: 1; fill: rgb(99, 110, 250); fill-opacity: 0.5;"/><path class="box" d="M1437.82,188.29H1550.45M1437.82,189.29H1550.45V184.87H1437.82ZM1494.13,189.29V227.09M1494.13,184.87V113.66M1465.97,227.09H1522.29M1465.97,113.66H1522.29" style="vector-effect: none; stroke-width: 2px; stroke: rgb(99, 110, 250); stroke-opacity: 1; fill: rgb(99, 110, 250); fill-opacity: 0.5;"/><path class="box" d="M1667.68,189.29H1780.32M1667.68,196.67H1780.32V184.11H1667.68ZM1724,196.67V226.13M1724,184.11V146.87M1695.84,226.13H1752.16M1695.84,146.87H1752.16" style="vector-effect: none; stroke-width: 2px; stroke: rgb(99, 110, 250); stroke-opacity: 1; fill: rgb(99, 110, 250); fill-opacity: 0.5;"/><path class="box" d="M1897.55,189.29H2010.18M1897.55,189.29H2010.18V189.29H1897.55ZM1953.87,189.29V222.77M1953.87,189.29V132.27M1925.71,222.77H1982.03M1925.71,132.27H1982.03" style="vector-effect: none; stroke-width: 2px; stroke: rgb(99, 110, 250); stroke-opacity: 1; fill: rgb(99, 110, 250); fill-opacity: 0.5;"/><path class="box" d="M2127.42,189.29H2240.05M2127.42,189.29H2240.05V189.29H2127.42ZM2183.73,189.29V226.13M2183.73,189.29V147.02M2155.57,226.13H2211.89M2155.57,147.02H2211.89" style="vector-effect: none; stroke-width: 2px; stroke: rgb(99, 110, 250); stroke-opacity: 1; fill: rgb(99, 110, 250); fill-opacity: 0.5;"/><path class="box" d="M2357.28,189.29H2469.92M2357.28,189.29H2469.92V189.29H2357.28ZM2413.6,189.29V228.53M2413.6,189.29V12.4M2385.44,228.53H2441.76M2385.44,12.4H2441.76" style="vector-effect: none; stroke-width: 2px; stroke: rgb(99, 110, 250); stroke-opacity: 1; fill: rgb(99, 110, 250); fill-opacity: 0.5;"/><path class="box" d="M2587.15,189.29H2699.78M2587.15,189.29H2699.78V189.29H2587.15ZM2643.47,189.29V232.04M2643.47,189.29V107.83M2615.31,232.04H2671.63M2615.31,107.83H2671.63" style="vector-effect: none; stroke-width: 2px; stroke: rgb(99, 110, 250); stroke-opacity: 1; fill: rgb(99, 110, 250); fill-opacity: 0.5;"/><path class="box" d="M2817.02,189.29H2929.65M2817.02,189.29H2929.65V189.29H2817.02ZM2873.33,189.29V227.81M2873.33,189.29V119.36M2845.17,227.81H2901.49M2845.17,119.36H2901.49" style="vector-effect: none; stroke-width: 2px; stroke: rgb(99, 110, 250); stroke-opacity: 1; fill: rgb(99, 110, 250); fill-opacity: 0.5;"/><path class="box" d="M3046.88,188.29H3159.52M3046.88,189.29H3159.52V176.99H3046.88ZM3103.2,189.29V219.9M3103.2,176.99V114.26M3075.04,219.9H3131.36M3075.04,114.26H3131.36" style="vector-effect: none; stroke-width: 2px; stroke: rgb(99, 110, 250); stroke-opacity: 1; fill: rgb(99, 110, 250); fill-opacity: 0.5;"/><path class="box" d="M3276.75,190.29H3389.38M3276.75,194.52H3389.38V189.29H3276.75ZM3333.07,194.52V229.7M3333.07,189.29V121.78M3304.91,229.7H3361.23M3304.91,121.78H3361.23" style="vector-effect: none; stroke-width: 2px; stroke: rgb(99, 110, 250); stroke-opacity: 1; fill: rgb(99, 110, 250); fill-opacity: 0.5;"/></g></g></g></g><g class="zerolinelayer-above"/><path class="xlines-above crisp" d="M0,0" style="fill: none;"/><path class="ylines-above crisp" d="M0,0" style="fill: none;"/><g class="overlines-above"/><g class="xaxislayer-above"><g class="xtick"><text text-anchor="end" x="0" y="291" transform="translate(166.93,0) rotate(-45,0,285)" style="font-family: 'Open Sans', verdana, arial, sans-serif; font-size: 12px; fill: rgb(42, 63, 95); fill-opacity: 1; white-space: pre;">Temporary Help Services</text></g><g class="xtick"><text text-anchor="end" x="0" y="291" transform="translate(396.8,0) rotate(-45,0,285)" style="font-family: 'Open Sans', verdana, arial, sans-serif; font-size: 12px; fill: rgb(42, 63, 95); fill-opacity: 1; white-space: pre;">Commercial Banking</text></g><g class="xtick"><text text-anchor="end" x="0" y="291" transform="translate(626.67,0) rotate(-45,0,285)" style="font-family: 'Open Sans', verdana, arial, sans-serif; font-size: 12px; fill: rgb(42, 63, 95); fill-opacity: 1; white-space: pre;">Unclassified Industry</text></g><g class="xtick"><text text-anchor="end" x="0" y="291" transform="translate(856.53,0) rotate(-45,0,285)" style="font-family: 'Open Sans', verdana, arial, sans-serif; font-size: 12px; fill: rgb(42, 63, 95); fill-opacity: 1; white-space: pre;">Custom Computer Programming Services</text></g><g class="xtick"><text text-anchor="end" x="0" y="291" transform="translate(1086.4,0) rotate(-45,0,285)" style="font-family: 'Open Sans', verdana, arial, sans-serif; font-size: 12px; fill: rgb(42, 63, 95); fill-opacity: 1; white-space: pre;">Administrative Management and General Management Consulting Services</text></g><g class="xtick"><text text-anchor="end" x="0" y="291" transform="translate(1316.27,0) rotate(-45,0,285)" style="font-family: 'Open Sans', verdana, arial, sans-serif; font-size: 12px; fill: rgb(42, 63, 95); fill-opacity: 1; white-space: pre;">Colleges, Universities, and Professional Schools</text></g><g class="xtick"><text text-anchor="end" x="0" y="291" transform="translate(1546.13,0) rotate(-45,0,285)" style="font-family: 'Open Sans', verdana, arial, sans-serif; font-size: 12px; fill: rgb(42, 63, 95); fill-opacity: 1; white-space: pre;">Computer Systems Design Services</text></g><g class="xtick"><text text-anchor="end" x="0" y="291" transform="translate(1776,0) rotate(-45,0,285)" style="font-family: 'Open Sans', verdana, arial, sans-serif; font-size: 12px; fill: rgb(42, 63, 95); fill-opacity: 1; white-space: pre;">Direct Health and Medical Insurance Carriers</text></g><g class="xtick"><text text-anchor="end" x="0" y="291" transform="translate(2005.87,0) rotate(-45,0,285)" style="font-family: 'Open Sans', verdana, arial, sans-serif; font-size: 12px; fill: rgb(42, 63, 95); fill-opacity: 1; white-space: pre;">Other Management Consulting Services</text></g><g class="xtick"><text text-anchor="end" x="0" y="291" transform="translate(2235.73,0) rotate(-45,0,285)" style="font-family: 'Open Sans', verdana, arial, sans-serif; font-size: 12px; fill: rgb(42, 63, 95); fill-opacity: 1; white-space: pre;">Other Scientific and Technical Consulting Services</text></g><g class="xtick"><text text-anchor="end" x="0" y="291" transform="translate(2465.6,0) rotate(-45,0,285)" style="font-family: 'Open Sans', verdana, arial, sans-serif; font-size: 12px; fill: rgb(42, 63, 95); fill-opacity: 1; white-space: pre;">Employment Placement Agencies</text></g><g class="xtick"><text text-anchor="end" x="0" y="291" transform="translate(2695.47,0) rotate(-45,0,285)" style="font-family: 'Open Sans', verdana, arial, sans-serif; font-size: 12px; fill: rgb(42, 63, 95); fill-opacity: 1; white-space: pre;">Other Computer Related Services</text></g><g class="xtick"><text text-anchor="end" x="0" y="291" transform="translate(2925.33,0) rotate(-45,0,285)" style="font-family: 'Open Sans', verdana, arial, sans-serif; font-size: 12px; fill: rgb(42, 63, 95); fill-opacity: 1; white-space: pre;">All Other Professional, Scientific, and Technical Services</text></g><g class="xtick"><text text-anchor="end" x="0" y="291" transform="translate(3155.2,0) rotate(-45,0,285)" style="font-family: 'Open Sans', verdana, arial, sans-serif; font-size: 12px; fill: rgb(42, 63, 95); fill-opacity: 1; white-space: pre;">Offices of Certified Public Accountants</text></g><g class="xtick"><text text-anchor="end" x="0" y="291" transform="translate(3385.07,0) rotate(-45,0,285)" style="font-family: 'Open Sans', verdana, arial, sans-serif; font-size: 12px; fill: rgb(42, 63, 95); fill-opacity: 1; white-space: pre;">General Medical and Surgical Hospitals</text></g></g><g class="yaxislayer-above"><g class="ytick"><text text-anchor="end" x="51" y="4.199999999999999" transform="translate(0,272.90999999999997)" style="font-family: 'Open Sans', verdana, arial, sans-serif; font-size: 12px; fill: rgb(42, 63, 95); fill-opacity: 1; white-space: pre;">0</text></g><g class="ytick"><text text-anchor="end" x="51" y="4.199999999999999" style="font-family: 'Open Sans', verdana, arial, sans-serif; font-size: 12px; fill: rgb(42, 63, 95); fill-opacity: 1; white-space: pre;" transform="translate(0,226.81)">100k</text></g><g class="ytick"><text text-anchor="end" x="51" y="4.199999999999999" style="font-family: 'Open Sans', verdana, arial, sans-serif; font-size: 12px; fill: rgb(42, 63, 95); fill-opacity: 1; white-space: pre;" transform="translate(0,180.71)">200k</text></g><g class="ytick"><text text-anchor="end" x="51" y="4.199999999999999" style="font-family: 'Open Sans', verdana, arial, sans-serif; font-size: 12px; fill: rgb(42, 63, 95); fill-opacity: 1; white-space: pre;" transform="translate(0,134.6)">300k</text></g><g class="ytick"><text text-anchor="end" x="51" y="4.199999999999999" style="font-family: 'Open Sans', verdana, arial, sans-serif; font-size: 12px; fill: rgb(42, 63, 95); fill-opacity: 1; white-space: pre;" transform="translate(0,88.5)">400k</text></g><g class="ytick"><text text-anchor="end" x="51" y="4.199999999999999" style="font-family: 'Open Sans', verdana, arial, sans-serif; font-size: 12px; fill: rgb(42, 63, 95); fill-opacity: 1; white-space: pre;" transform="translate(0,42.4)">500k</text></g></g><g class="overaxes-above"/></g></g><g class="polarlayer"/><g class="smithlayer"/><g class="ternarylayer"/><g class="geolayer"/><g class="funnelarealayer"/><g class="pielayer"/><g class="iciclelayer"/><g class="treemaplayer"/><g class="sunburstlayer"/><g class="glimages"/><defs id="topdefs-9aae83"><g class="clips"/></defs><g class="layer-above"><g class="imagelayer"/><g class="shapelayer"/></g><g class="infolayer"><g class="g-gtitle"><text class="gtitle" x="175" y="15" text-anchor="start" dy="0em" style="opacity: 1; font-family: 'Open Sans', verdana, arial, sans-serif; font-size: 17px; fill: rgb(42, 63, 95); fill-opacity: 1; white-space: pre;">Salary Distribution by Industry (Top 15)</text></g><g class="g-xtitle" transform="translate(0,-2.1251953124999545)"><text class="xtitle" x="1776" y="599.1251953125" text-anchor="middle" style="opacity: 1; font-family: 'Open Sans', verdana, arial, sans-serif; font-size: 14px; fill: rgb(42, 63, 95); fill-opacity: 1; white-space: pre;">Industry</text></g><g class="g-ytitle" transform="translate(7.431640625,0)"><text class="ytitle" transform="rotate(-90,5.568750000000001,154)" x="5.568750000000001" y="154" text-anchor="middle" style="opacity: 1; font-family: 'Open Sans', verdana, arial, sans-serif; font-size: 14px; fill: rgb(42, 63, 95); fill-opacity: 1; white-space: pre;">Salary</text></g></g></svg>