<svg class="main-svg" xmlns="http://www.w3.org/2000/svg" xmlns:xlink="http://www.w3.org/1999/xlink" width="3500" height="600" style="" viewBox="0 0 3500 600"><rect x="0" y="0" width="3500" height="600" style="fill: rgb(255, 255, 255); fill-opacity: 1;"/><defs id="defs-17ea0e"><g class="clips"><clipPath id="clip17ea0exyplot" class="plotclip"><rect width="3444" height="212"/></clipPath><clipPath class="axesclip" id="clip17ea0ex"><rect x="56" y="0" width="3444" height="600"/></clipPath><clipPath class="axesclip" id="clip17ea0ey"><rect x="0" y="30" width="3500" height="212"/></clipPath><clipPath class="axesclip" id="clip17ea0exy"><rect x="56" y="30" width="3444" height="212"/></clipPath></g><g class="gradients"/><g class="patterns"/></defs><g class="bglayer"><rect class="bg" x="56" y="30" width="3444" height="212" style="fill: rgb(229, 236, 246); fill-opacity: 1; stroke-width: 0;"/></g><g class="layer-below"><g class="imagelayer"/><g class="shapelayer"/></g><g class="cartesianlayer"><g class="subplot xy"><g class="layer-subplot"><g class="shapelayer"/><g class="imagelayer"/></g><g class="minor-gridlayer"><g class="x"/><g class="y"/></g><g class="gridlayer"><g class="x"/><g class="y"><path class="ygrid crisp" transform="translate(0,198.24)" d="M56,0h3444" style="stroke: rgb(255, 255, 255); stroke-opacity: 1; stroke-width: 1px;"/><path class="ygrid crisp" transform="translate(0,158.83)" d="M56,0h3444" style="stroke: rgb(255, 255, 255); stroke-opacity: 1; stroke-width: 1px;"/><path class="ygrid crisp" transform="translate(0,119.42)" d="M56,0h3444" style="stroke: rgb(255, 255, 255); stroke-opacity: 1; stroke-width: 1px;"/><path class="ygrid crisp" transform="translate(0,80.00999999999999)" d="M56,0h3444" style="stroke: rgb(255, 255, 255); stroke-opacity: 1; stroke-width: 1px;"/><path class="ygrid crisp" transform="translate(0,40.6)" d="M56,0h3444" style="stroke: rgb(255, 255, 255); stroke-opacity: 1; stroke-width: 1px;"/></g></g><g class="zerolinelayer"><path class="yzl zl crisp" transform="translate(0,237.65)" d="M56,0h3444" style="stroke: rgb(255, 255, 255); stroke-opacity: 1; stroke-width: 2px;"/></g><g class="layer-between"><g class="shapelayer"/><g class="imagelayer"/></g><path class="xlines-below"/><path class="ylines-below"/><g class="overlines-below"/><g class="xaxislayer-below"/><g class="yaxislayer-below"/><g class="overaxes-below"/><g class="overplot"><g class="xy" transform="translate(56,30)" clip-path="url(#clip17ea0exyplot)"><g class="boxlayer mlayer"><g class="trace boxes" style="opacity: 1;"><path class="box" d="M58.55,161.82H171.05M58.55,161.82H171.05V161.82H58.55ZM114.8,161.82V196.99M114.8,161.82V22.42M86.67,196.99H142.93M86.67,22.42H142.93" style="vector-effect: none; stroke-width: 2px; stroke: rgb(99, 110, 250); stroke-opacity: 1; fill: rgb(99, 110, 250); fill-opacity: 0.5;"/><path class="box" d="M288.15,161.82H400.65M288.15,161.82H400.65V161.17H288.15ZM344.4,161.82V195.35M344.4,161.17V91.71M316.27,195.35H372.53M316.27,91.71H372.53" style="vector-effect: none; stroke-width: 2px; stroke: rgb(99, 110, 250); stroke-opacity: 1; fill: rgb(99, 110, 250); fill-opacity: 0.5;"/><path class="box" d="M517.75,161.82H630.25M517.75,161.82H630.25V161.82H517.75ZM574,161.82V201.4M574,161.82V60.85M545.87,201.4H602.13M545.87,60.85H602.13" style="vector-effect: none; stroke-width: 2px; stroke: rgb(99, 110, 250); stroke-opacity: 1; fill: rgb(99, 110, 250); fill-opacity: 0.5;"/><path class="box" d="M747.35,161.82H859.85M747.35,161.82H859.85V161.82H747.35ZM803.6,161.82V193.72M803.6,161.82V90.56M775.47,193.72H831.73M775.47,90.56H831.73" style="vector-effect: none; stroke-width: 2px; stroke: rgb(99, 110, 250); stroke-opacity: 1; fill: rgb(99, 110, 250); fill-opacity: 0.5;"/><path class="box" d="M976.95,160.82H1089.45M976.95,161.82H1089.45V148.1H976.95ZM1033.2,161.82V192.08M1033.2,148.1V84.69M1005.07,192.08H1061.33M1005.07,84.69H1061.33" style="vector-effect: none; stroke-width: 2px; stroke: rgb(99, 110, 250); stroke-opacity: 1; fill: rgb(99, 110, 250); fill-opacity: 0.5;"/><path class="box" d="M1206.55,162.82H1319.05M1206.55,177.74H1319.05V161.82H1206.55ZM1262.8,177.74V196.34M1262.8,161.82V104.3M1234.67,196.34H1290.93M1234.67,104.3H1290.93" style="vector-effect: none; stroke-width: 2px; stroke: rgb(99, 110, 250); stroke-opacity: 1; fill: rgb(99, 110, 250); fill-opacity: 0.5;"/><path class="box" d="M1436.15,160.82H1548.65M1436.15,161.82H1548.65V158.03H1436.15ZM1492.4,161.82V194.12M1492.4,158.03V97.16M1464.27,194.12H1520.53M1464.27,97.16H1520.53" style="vector-effect: none; stroke-width: 2px; stroke: rgb(99, 110, 250); stroke-opacity: 1; fill: rgb(99, 110, 250); fill-opacity: 0.5;"/><path class="box" d="M1665.75,161.82H1778.25M1665.75,168.12H1778.25V157.38H1665.75ZM1722,168.12V193.31M1722,157.38V125.55M1693.87,193.31H1750.13M1693.87,125.55H1750.13" style="vector-effect: none; stroke-width: 2px; stroke: rgb(99, 110, 250); stroke-opacity: 1; fill: rgb(99, 110, 250); fill-opacity: 0.5;"/><path class="box" d="M1895.35,161.82H2007.85M1895.35,161.82H2007.85V161.82H1895.35ZM1951.6,161.82V190.44M1951.6,161.82V113.07M1923.47,190.44H1979.73M1923.47,113.07H1979.73" style="vector-effect: none; stroke-width: 2px; stroke: rgb(99, 110, 250); stroke-opacity: 1; fill: rgb(99, 110, 250); fill-opacity: 0.5;"/><path class="box" d="M2124.95,161.82H2237.45M2124.95,161.82H2237.45V161.82H2124.95ZM2181.2,161.82V193.31M2181.2,161.82V125.68M2153.07,193.31H2209.33M2153.07,125.68H2209.33" style="vector-effect: none; stroke-width: 2px; stroke: rgb(99, 110, 250); stroke-opacity: 1; fill: rgb(99, 110, 250); fill-opacity: 0.5;"/><path class="box" d="M2354.55,161.82H2467.05M2354.55,161.82H2467.05V161.82H2354.55ZM2410.8,161.82V195.35M2410.8,161.82V10.6M2382.67,195.35H2438.93M2382.67,10.6H2438.93" style="vector-effect: none; stroke-width: 2px; stroke: rgb(99, 110, 250); stroke-opacity: 1; fill: rgb(99, 110, 250); fill-opacity: 0.5;"/><path class="box" d="M2584.15,161.82H2696.65M2584.15,161.82H2696.65V161.82H2584.15ZM2640.4,161.82V198.36M2640.4,161.82V92.18M2612.27,198.36H2668.53M2612.27,92.18H2668.53" style="vector-effect: none; stroke-width: 2px; stroke: rgb(99, 110, 250); stroke-opacity: 1; fill: rgb(99, 110, 250); fill-opacity: 0.5;"/><path class="box" d="M2813.75,161.82H2926.25M2813.75,161.82H2926.25V161.82H2813.75ZM2870,161.82V194.74M2870,161.82V102.03M2841.87,194.74H2898.13M2841.87,102.03H2898.13" style="vector-effect: none; stroke-width: 2px; stroke: rgb(99, 110, 250); stroke-opacity: 1; fill: rgb(99, 110, 250); fill-opacity: 0.5;"/><path class="box" d="M3043.35,160.82H3155.85M3043.35,161.82H3155.85V151.29H3043.35ZM3099.6,161.82V187.98M3099.6,151.29V97.68M3071.47,187.98H3127.73M3071.47,97.68H3127.73" style="vector-effect: none; stroke-width: 2px; stroke: rgb(99, 110, 250); stroke-opacity: 1; fill: rgb(99, 110, 250); fill-opacity: 0.5;"/><path class="box" d="M3272.95,162.82H3385.45M3272.95,166.28H3385.45V161.82H3272.95ZM3329.2,166.28V196.36M3329.2,161.82V104.1M3301.07,196.36H3357.33M3301.07,104.1H3357.33" style="vector-effect: none; stroke-width: 2px; stroke: rgb(99, 110, 250); stroke-opacity: 1; fill: rgb(99, 110, 250); fill-opacity: 0.5;"/></g></g></g></g><g class="zerolinelayer-above"/><path class="xlines-above crisp" d="M0,0" style="fill: none;"/><path class="ylines-above crisp" d="M0,0" style="fill: none;"/><g class="overlines-above"/><g class="xaxislayer-above"><g class="xtick"><text text-anchor="end" x="0" y="255" transform="translate(170.8,0) rotate(-45,0,249)" style="font-family: 'Open Sans', verdana, arial, sans-serif; font-size: 12px; fill: rgb(42, 63, 95); fill-opacity: 1; white-space: pre;">Temporary Help Services</text></g><g class="xtick"><text text-anchor="end" x="0" y="255" transform="translate(400.4,0) rotate(-45,0,249)" style="font-family: 'Open Sans', verdana, arial, sans-serif; font-size: 12px; fill: rgb(42, 63, 95); fill-opacity: 1; white-space: pre;">Commercial Banking</text></g><g class="xtick"><text text-anchor="end" x="0" y="255" transform="translate(630,0) rotate(-45,0,249)" style="font-family: 'Open Sans', verdana, arial, sans-serif; font-size: 12px; fill: rgb(42, 63, 95); fill-opacity: 1; white-space: pre;">Unclassified Industry</text></g><g class="xtick"><text text-anchor="end" x="0" y="255" transform="translate(859.6,0) rotate(-45,0,249)" style="font-family: 'Open Sans', verdana, arial, sans-serif; font-size: 12px; fill: rgb(42, 63, 95); fill-opacity: 1; white-space: pre;">Custom Computer Programming Services</text></g><g class="xtick"><text text-anchor="end" x="0" y="255" transform="translate(1089.2,0) rotate(-45,0,249)" style="font-family: 'Open Sans', verdana, arial, sans-serif; font-size: 12px; fill: rgb(42, 63, 95); fill-opacity: 1; white-space: pre;">Administrative Management and General Management Consulting Services</text></g><g class="xtick"><text text-anchor="end" x="0" y="255" transform="translate(1318.8,0) rotate(-45,0,249)" style="font-family: 'Open Sans', verdana, arial, sans-serif; font-size: 12px; fill: rgb(42, 63, 95); fill-opacity: 1; white-space: pre;">Colleges, Universities, and Professional Schools</text></g><g class="xtick"><text text-anchor="end" x="0" y="255" transform="translate(1548.4,0) rotate(-45,0,249)" style="font-family: 'Open Sans', verdana, arial, sans-serif; font-size: 12px; fill: rgb(42, 63, 95); fill-opacity: 1; white-space: pre;">Computer Systems Design Services</text></g><g class="xtick"><text text-anchor="end" x="0" y="255" transform="translate(1778,0) rotate(-45,0,249)" style="font-family: 'Open Sans', verdana, arial, sans-serif; font-size: 12px; fill: rgb(42, 63, 95); fill-opacity: 1; white-space: pre;">Direct Health and Medical Insurance Carriers</text></g><g class="xtick"><text text-anchor="end" x="0" y="255" transform="translate(2007.6,0) rotate(-45,0,249)" style="font-family: 'Open Sans', verdana, arial, sans-serif; font-size: 12px; fill: rgb(42, 63, 95); fill-opacity: 1; white-space: pre;">Other Management Consulting Services</text></g><g class="xtick"><text text-anchor="end" x="0" y="255" transform="translate(2237.2,0) rotate(-45,0,249)" style="font-family: 'Open Sans', verdana, arial, sans-serif; font-size: 12px; fill: rgb(42, 63, 95); fill-opacity: 1; white-space: pre;">Other Scientific and Technical Consulting Services</text></g><g class="xtick"><text text-anchor="end" x="0" y="255" transform="translate(2466.8,0) rotate(-45,0,249)" style="font-family: 'Open Sans', verdana, arial, sans-serif; font-size: 12px; fill: rgb(42, 63, 95); fill-opacity: 1; white-space: pre;">Employment Placement Agencies</text></g><g class="xtick"><text text-anchor="end" x="0" y="255" transform="translate(2696.4,0) rotate(-45,0,249)" style="font-family: 'Open Sans', verdana, arial, sans-serif; font-size: 12px; fill: rgb(42, 63, 95); fill-opacity: 1; white-space: pre;">Other Computer Related Services</text></g><g class="xtick"><text text-anchor="end" x="0" y="255" transform="translate(2926,0) rotate(-45,0,249)" style="font-family: 'Open Sans', verdana, arial, sans-serif; font-size: 12px; fill: rgb(42, 63, 95); fill-opacity: 1; white-space: pre;">All Other Professional, Scientific, and Technical Services</text></g><g class="xtick"><text text-anchor="end" x="0" y="255" transform="translate(3155.6,0) rotate(-45,0,249)" style="font-family: 'Open Sans', verdana, arial, sans-serif; font-size: 12px; fill: rgb(42, 63, 95); fill-opacity: 1; white-space: pre;">Offices of Certified Public Accountants</text></g><g class="xtick"><text text-anchor="end" x="0" y="255" transform="translate(3385.2,0) rotate(-45,0,249)" style="font-family: 'Open Sans', verdana, arial, sans-serif; font-size: 12px; fill: rgb(42, 63, 95); fill-opacity: 1; white-space: pre;">General Medical and Surgical Hospitals</text></g></g><g class="yaxislayer-above"><g class="ytick"><text text-anchor="end" x="55" y="4.199999999999999" transform="translate(0,237.65)" style="font-family: 'Open Sans', verdana, arial, sans-serif; font-size: 12px; fill: rgb(42, 63, 95); fill-opacity: 1; white-space: pre;">0</text></g><g class="ytick"><text text-anchor="end" x="55" y="4.199999999999999" style="font-family: 'Open Sans', verdana, arial, sans-serif; font-size: 12px; fill: rgb(42, 63, 95); fill-opacity: 1; white-space: pre;" transform="translate(0,198.24)">100k</text></g><g class="ytick"><text text-anchor="end" x="55" y="4.199999999999999" style="font-family: 'Open Sans', verdana, arial, sans-serif; font-size: 12px; fill: rgb(42, 63, 95); fill-opacity: 1; white-space: pre;" transform="translate(0,158.83)">200k</text></g><g class="ytick"><text text-anchor="end" x="55" y="4.199999999999999" style="font-family: 'Open Sans', verdana, arial, sans-serif; font-size: 12px; fill: rgb(42, 63, 95); fill-opacity: 1; white-space: pre;" transform="translate(0,119.42)">300k</text></g><g class="ytick"><text text-anchor="end" x="55" y="4.199999999999999" style="font-family: 'Open Sans', verdana, arial, sans-serif; font-size: 12px; fill: rgb(42, 63, 95); fill-opacity: 1; white-space: pre;" transform="translate(0,80.00999999999999)">400k</text></g><g class="ytick"><text text-anchor="end" x="55" y="4.199999999999999" style="font-family: 'Open Sans', verdana, arial, sans-serif; font-size: 12px; fill: rgb(42, 63, 95); fill-opacity: 1; white-space: pre;" transform="translate(0,40.6)">500k</text></g></g><g class="overaxes-above"/></g></g><g class="polarlayer"/><g class="smithlayer"/><g class="ternarylayer"/><g class="geolayer"/><g class="funnelarealayer"/><g class="pielayer"/><g class="iciclelayer"/><g class="treemaplayer"/><g class="sunburstlayer"/><g class="glimages"/><defs id="topdefs-17ea0e"><g class="clips"/></defs><g class="layer-above"><g class="imagelayer"/><g class="shapelayer"/></g><g class="infolayer"><g class="g-gtitle"><text class="gtitle" x="175" y="15" text-anchor="start" dy="0em" style="opacity: 1; font-family: 'Open Sans', verdana, arial, sans-serif; font-size: 17px; fill: rgb(42, 63, 95); fill-opacity: 1; white-space: pre;">Salary Distribution by Industry (Top 15)</text></g><g class="g-xtitle" transform="translate(0,-2.6847656249999545)"><text class="xtitle" x="1778" y="599.684765625" text-anchor="middle" style="opacity: 1; font-family: 'Open Sans', verdana, arial, sans-serif; font-size: 14px; fill: rgb(42, 63, 95); fill-opacity: 1; white-space: pre;">Industry</text></g><g class="g-ytitle" transform="translate(7.259765625,0)"><text class="ytitle" transform="rotate(-90,5.740625000000001,136)" x="5.740625000000001" y="136" text-anchor="middle" style="opacity: 1; font-family: 'Open Sans', verdana, arial, sans-serif; font-size: 14px; fill: rgb(42, 63, 95); fill-opacity: 1; white-space: pre;">Salary</text></g></g></svg>